<?xml version="1.0" encoding="UTF-8" standalone="no"?>
<!DOCTYPE svg PUBLIC "-//W3C//DTD SVG 1.0//EN" "http://www.w3.org/TR/2001/PR-SVG-20010719/DTD/svg10.dtd">
<svg width="6cm" height="19cm" viewBox="3 1 112 369" xmlns="http://www.w3.org/2000/svg" xmlns:xlink="http://www.w3.org/1999/xlink">
  <g id="Background">
    <g>
      <ellipse style="fill: #000000; fill-opacity: 1" cx="18.9916" cy="4.55999" rx="2.99164" ry="2.55999"/>
      <ellipse style="fill: none; stroke-opacity: 1; stroke-width: 0.2; stroke: #000000" cx="18.9916" cy="4.55999" rx="2.99164" ry="2.55999"/>
      <text font-size="1.6" style="fill: #000000; fill-opacity: 1;text-anchor:middle;font-family:sans-serif;font-style:normal;font-weight:normal" x="18.9916" y="5.05999">
        <tspan x="18.9916" y="5.05999"></tspan>
      </text>
    </g>
    <g>
      <polygon style="fill: #dbedf3; fill-opacity: 1" points="18.9916,28.351 33.6966,33.6028 18.9916,38.8546 4.28664,33.6028 "/>
      <polygon style="fill: none; stroke-opacity: 1; stroke-width: 0.2; stroke: #000000" points="18.9916,28.351 33.6966,33.6028 18.9916,38.8546 4.28664,33.6028 "/>
      <text font-size="1.6" style="fill: #000000; fill-opacity: 1;text-anchor:middle;font-family:sans-serif;font-style:normal;font-weight:normal" x="18.9916" y="34.1028">
        <tspan x="18.9916" y="34.1028">service_available/2</tspan>
      </text>
    </g>
    <g>
      <line style="fill: none; stroke-opacity: 1; stroke-width: 0.2; stroke: #0000ff" x1="18.9916" y1="7.11998" x2="18.9916" y2="11.6902"/>
      <polygon style="fill: #0000ff; fill-opacity: 1" points="18.9916,13.9402 17.4916,10.9402 18.9916,11.6902 20.4916,10.9402 "/>
      <polygon style="fill: none; stroke-opacity: 1; stroke-width: 0.2; stroke: #0000ff" points="18.9916,13.9402 17.4916,10.9402 18.9916,11.6902 20.4916,10.9402 "/>
    </g>
    <g>
      <rect style="fill: #dbedf3; fill-opacity: 1" x="48" y="30.5028" width="35.8592" height="6.2" rx="0" ry="0"/>
      <rect style="fill: none; stroke-opacity: 1; stroke-width: 0.2; stroke: #000000" x="48" y="30.5028" width="35.8592" height="6.2" rx="0" ry="0"/>
      <line style="fill: none; stroke-opacity: 1; stroke-width: 0.2; stroke: #000000" x1="80.2733" y1="36.7028" x2="80.2733" y2="30.5028"/>
      <line style="fill: none; stroke-opacity: 1; stroke-width: 0.2; stroke: #000000" x1="51.5859" y1="36.7028" x2="51.5859" y2="30.5028"/>
      <text font-size="1.6" style="fill: #000000; fill-opacity: 1;text-anchor:middle;font-family:sans-serif;font-style:normal;font-weight:normal" x="65.9296" y="34.1028">
        <tspan x="65.9296" y="34.1028">503 Service Unaveible</tspan>
      </text>
    </g>
    <text font-size="2.82222" style="fill: #ff0000; fill-opacity: 1;text-anchor:start;font-family:sans-serif;font-style:normal;font-weight:normal" x="33.6966" y="32.9528">
      <tspan x="33.6966" y="32.9528"> false</tspan>
    </text>
    <g>
      <line style="fill: none; stroke-opacity: 1; stroke-width: 0.2; stroke: #ff0000" x1="33.6966" y1="33.6028" x2="46.4264" y2="33.6028"/>
      <polygon style="fill: #ff0000; fill-opacity: 1" points="47.7764,33.6028 45.9764,34.5028 46.4264,33.6028 45.9764,32.7028 "/>
      <polygon style="fill: none; stroke-opacity: 1; stroke-width: 0.2; stroke: #ff0000" points="47.7764,33.6028 45.9764,34.5028 46.4264,33.6028 45.9764,32.7028 "/>
    </g>
    <g>
      <polygon style="fill: #dbedf3; fill-opacity: 1" points="18.9916,47.859 33.0806,53.0827 18.9916,58.3064 4.90264,53.0827 "/>
      <polygon style="fill: none; stroke-opacity: 1; stroke-width: 0.2; stroke: #000000" points="18.9916,47.859 33.0806,53.0827 18.9916,58.3064 4.90264,53.0827 "/>
      <text font-size="1.6" style="fill: #000000; fill-opacity: 1;text-anchor:middle;font-family:sans-serif;font-style:normal;font-weight:normal" x="18.9916" y="53.5827">
        <tspan x="18.9916" y="53.5827">known_methods/2</tspan>
      </text>
    </g>
    <g>
      <polygon style="fill: #dbedf3; fill-opacity: 1" points="18.9916,68.1374 32.7477,72.8997 18.9916,77.662 5.23564,72.8997 "/>
      <polygon style="fill: none; stroke-opacity: 1; stroke-width: 0.2; stroke: #000000" points="18.9916,68.1374 32.7477,72.8997 18.9916,77.662 5.23564,72.8997 "/>
      <text font-size="1.6" style="fill: #000000; fill-opacity: 1;text-anchor:middle;font-family:sans-serif;font-style:normal;font-weight:normal" x="18.9916" y="73.3997">
        <tspan x="18.9916" y="73.3997">uri_too_long/2</tspan>
      </text>
    </g>
    <g>
      <polygon style="fill: #dbedf3; fill-opacity: 1" points="18.9916,86.1886 33.077,91.893 18.9916,97.5973 4.90624,91.893 "/>
      <polygon style="fill: none; stroke-opacity: 1; stroke-width: 0.2; stroke: #000000" points="18.9916,86.1886 33.077,91.893 18.9916,97.5973 4.90624,91.893 "/>
      <text font-size="1.6" style="fill: #000000; fill-opacity: 1;text-anchor:middle;font-family:sans-serif;font-style:normal;font-weight:normal" x="18.9916" y="92.393">
        <tspan x="18.9916" y="92.393">allowed_methods/2</tspan>
      </text>
    </g>
    <g>
      <polygon style="fill: #dbedf3; fill-opacity: 1" points="18.9916,105.837 33.3428,112.282 18.9916,118.727 4.6405,112.282 "/>
      <polygon style="fill: none; stroke-opacity: 1; stroke-width: 0.2; stroke: #000000" points="18.9916,105.837 33.3428,112.282 18.9916,118.727 4.6405,112.282 "/>
      <text font-size="1.6" style="fill: #000000; fill-opacity: 1;text-anchor:middle;font-family:sans-serif;font-style:normal;font-weight:normal" x="18.9916" y="112.782">
        <tspan x="18.9916" y="112.782">malformed_request/2</tspan>
      </text>
    </g>
    <g>
      <polygon style="fill: #dbedf3; fill-opacity: 1" points="18.9916,129.13 33.4959,133.314 18.9916,137.498 4.48736,133.314 "/>
      <polygon style="fill: none; stroke-opacity: 1; stroke-width: 0.2; stroke: #000000" points="18.9916,129.13 33.4959,133.314 18.9916,137.498 4.48736,133.314 "/>
      <text font-size="1.6" style="fill: #000000; fill-opacity: 1;text-anchor:middle;font-family:sans-serif;font-style:normal;font-weight:normal" x="18.9916" y="133.814">
        <tspan x="18.9916" y="133.814">is_authorized/2</tspan>
      </text>
    </g>
    <g>
      <polygon style="fill: #dbedf3; fill-opacity: 1" points="18.9916,146.789 33.0916,150.314 18.9916,153.839 4.89164,150.314 "/>
      <polygon style="fill: none; stroke-opacity: 1; stroke-width: 0.2; stroke: #000000" points="18.9916,146.789 33.0916,150.314 18.9916,153.839 4.89164,150.314 "/>
      <text font-size="1.6" style="fill: #000000; fill-opacity: 1;text-anchor:middle;font-family:sans-serif;font-style:normal;font-weight:normal" x="18.9916" y="150.814">
        <tspan x="18.9916" y="150.814">forbidden/2</tspan>
      </text>
    </g>
    <g>
      <polygon style="fill: #dbedf3; fill-opacity: 1" points="18.9916,163.316 34.6132,170.338 18.9916,177.361 3.3701,170.338 "/>
      <polygon style="fill: none; stroke-opacity: 1; stroke-width: 0.2; stroke: #000000" points="18.9916,163.316 34.6132,170.338 18.9916,177.361 3.3701,170.338 "/>
      <text font-size="1.6" style="fill: #000000; fill-opacity: 1;text-anchor:middle;font-family:sans-serif;font-style:normal;font-weight:normal" x="18.9916" y="170.838">
        <tspan x="18.9916" y="170.838">valid_content_headers/2</tspan>
      </text>
    </g>
    <g>
      <polygon style="fill: #dbedf3; fill-opacity: 1" points="18.9916,191.861 34.2245,198.217 18.9916,204.573 3.75884,198.217 "/>
      <polygon style="fill: none; stroke-opacity: 1; stroke-width: 0.2; stroke: #000000" points="18.9916,191.861 34.2245,198.217 18.9916,204.573 3.75884,198.217 "/>
      <text font-size="1.6" style="fill: #000000; fill-opacity: 1;text-anchor:middle;font-family:sans-serif;font-style:normal;font-weight:normal" x="18.9916" y="198.717">
        <tspan x="18.9916" y="198.717">known_content_type/2</tspan>
      </text>
    </g>
    <g>
      <polygon style="fill: #dbedf3; fill-opacity: 1" points="18.9916,217.32 34.0676,222.998 18.9916,228.676 3.91568,222.998 "/>
      <polygon style="fill: none; stroke-opacity: 1; stroke-width: 0.2; stroke: #000000" points="18.9916,217.32 34.0676,222.998 18.9916,228.676 3.91568,222.998 "/>
      <text font-size="1.6" style="fill: #000000; fill-opacity: 1;text-anchor:middle;font-family:sans-serif;font-style:normal;font-weight:normal" x="18.9916" y="223.498">
        <tspan x="18.9916" y="223.498">valid_entity_length/2</tspan>
      </text>
    </g>
    <g>
      <rect style="fill: #dbedf3; fill-opacity: 1" x="48" y="195.117" width="35.5187" height="6.2" rx="0" ry="0"/>
      <rect style="fill: none; stroke-opacity: 1; stroke-width: 0.2; stroke: #000000" x="48" y="195.117" width="35.5187" height="6.2" rx="0" ry="0"/>
      <line style="fill: none; stroke-opacity: 1; stroke-width: 0.2; stroke: #000000" x1="51.5519" y1="195.117" x2="51.5519" y2="201.317"/>
      <line style="fill: none; stroke-opacity: 1; stroke-width: 0.2; stroke: #000000" x1="79.9668" y1="195.117" x2="79.9668" y2="201.317"/>
      <text font-size="1.6" style="fill: #000000; fill-opacity: 1;text-anchor:middle;font-family:sans-serif;font-style:normal;font-weight:normal" x="65.7593" y="198.717">
        <tspan x="65.7593" y="198.717">415 Unsupported Media Type</tspan>
      </text>
    </g>
    <g>
      <rect style="fill: #dbedf3; fill-opacity: 1" x="48" y="49.9826" width="35.8725" height="6.2" rx="0" ry="0"/>
      <rect style="fill: none; stroke-opacity: 1; stroke-width: 0.2; stroke: #000000" x="48" y="49.9826" width="35.8725" height="6.2" rx="0" ry="0"/>
      <line style="fill: none; stroke-opacity: 1; stroke-width: 0.2; stroke: #000000" x1="51.5872" y1="49.9826" x2="51.5872" y2="56.1826"/>
      <line style="fill: none; stroke-opacity: 1; stroke-width: 0.2; stroke: #000000" x1="80.2852" y1="49.9826" x2="80.2852" y2="56.1826"/>
      <text font-size="1.6" style="fill: #000000; fill-opacity: 1;text-anchor:middle;font-family:sans-serif;font-style:normal;font-weight:normal" x="65.9362" y="53.5826">
        <tspan x="65.9362" y="53.5826">501 Not Implement</tspan>
      </text>
    </g>
    <g>
      <rect style="fill: #dbedf3; fill-opacity: 1" x="48" y="69.7998" width="35.96" height="6.2" rx="0" ry="0"/>
      <rect style="fill: none; stroke-opacity: 1; stroke-width: 0.2; stroke: #000000" x="48" y="69.7998" width="35.96" height="6.2" rx="0" ry="0"/>
      <line style="fill: none; stroke-opacity: 1; stroke-width: 0.2; stroke: #000000" x1="51.596" y1="69.7998" x2="51.596" y2="75.9998"/>
      <line style="fill: none; stroke-opacity: 1; stroke-width: 0.2; stroke: #000000" x1="80.364" y1="69.7998" x2="80.364" y2="75.9998"/>
      <text font-size="1.6" style="fill: #000000; fill-opacity: 1;text-anchor:middle;font-family:sans-serif;font-style:normal;font-weight:normal" x="65.98" y="73.3998">
        <tspan x="65.98" y="73.3998">414 Request URL Too Long</tspan>
      </text>
    </g>
    <g>
      <rect style="fill: #dbedf3; fill-opacity: 1" x="48" y="88.793" width="35.7209" height="6.2" rx="0" ry="0"/>
      <rect style="fill: none; stroke-opacity: 1; stroke-width: 0.2; stroke: #000000" x="48" y="88.793" width="35.7209" height="6.2" rx="0" ry="0"/>
      <line style="fill: none; stroke-opacity: 1; stroke-width: 0.2; stroke: #000000" x1="51.5721" y1="88.793" x2="51.5721" y2="94.993"/>
      <line style="fill: none; stroke-opacity: 1; stroke-width: 0.2; stroke: #000000" x1="80.1488" y1="88.793" x2="80.1488" y2="94.993"/>
      <text font-size="1.6" style="fill: #000000; fill-opacity: 1;text-anchor:middle;font-family:sans-serif;font-style:normal;font-weight:normal" x="65.8605" y="92.393">
        <tspan x="65.8605" y="92.393">405 Method Not Allow</tspan>
      </text>
    </g>
    <g>
      <rect style="fill: #dbedf3; fill-opacity: 1" x="48" y="109.182" width="34.9126" height="6.2" rx="0" ry="0"/>
      <rect style="fill: none; stroke-opacity: 1; stroke-width: 0.2; stroke: #000000" x="48" y="109.182" width="34.9126" height="6.2" rx="0" ry="0"/>
      <line style="fill: none; stroke-opacity: 1; stroke-width: 0.2; stroke: #000000" x1="51.4913" y1="109.182" x2="51.4913" y2="115.382"/>
      <line style="fill: none; stroke-opacity: 1; stroke-width: 0.2; stroke: #000000" x1="79.4214" y1="109.182" x2="79.4214" y2="115.382"/>
      <text font-size="1.6" style="fill: #000000; fill-opacity: 1;text-anchor:middle;font-family:sans-serif;font-style:normal;font-weight:normal" x="65.4563" y="112.782">
        <tspan x="65.4563" y="112.782">400 Bad Request</tspan>
      </text>
    </g>
    <g>
      <rect style="fill: #dbedf3; fill-opacity: 1" x="48" y="130.214" width="35.1275" height="6.2" rx="0" ry="0"/>
      <rect style="fill: none; stroke-opacity: 1; stroke-width: 0.2; stroke: #000000" x="48" y="130.214" width="35.1275" height="6.2" rx="0" ry="0"/>
      <line style="fill: none; stroke-opacity: 1; stroke-width: 0.2; stroke: #000000" x1="51.5128" y1="130.214" x2="51.5128" y2="136.414"/>
      <line style="fill: none; stroke-opacity: 1; stroke-width: 0.2; stroke: #000000" x1="79.6148" y1="130.214" x2="79.6148" y2="136.414"/>
      <text font-size="1.6" style="fill: #000000; fill-opacity: 1;text-anchor:middle;font-family:sans-serif;font-style:normal;font-weight:normal" x="65.5638" y="133.814">
        <tspan x="65.5638" y="133.814">401 Unauthorized</tspan>
      </text>
    </g>
    <g>
      <rect style="fill: #dbedf3; fill-opacity: 1" x="48" y="147.214" width="34.5549" height="6.2" rx="0" ry="0"/>
      <rect style="fill: none; stroke-opacity: 1; stroke-width: 0.2; stroke: #000000" x="48" y="147.214" width="34.5549" height="6.2" rx="0" ry="0"/>
      <line style="fill: none; stroke-opacity: 1; stroke-width: 0.2; stroke: #000000" x1="51.4555" y1="147.214" x2="51.4555" y2="153.414"/>
      <line style="fill: none; stroke-opacity: 1; stroke-width: 0.2; stroke: #000000" x1="79.0994" y1="147.214" x2="79.0994" y2="153.414"/>
      <text font-size="1.6" style="fill: #000000; fill-opacity: 1;text-anchor:middle;font-family:sans-serif;font-style:normal;font-weight:normal" x="65.2774" y="150.814">
        <tspan x="65.2774" y="150.814">403 Forbidden</tspan>
      </text>
    </g>
    <g>
      <rect style="fill: #dbedf3; fill-opacity: 1" x="48" y="167.238" width="35.1102" height="6.2" rx="0" ry="0"/>
      <rect style="fill: none; stroke-opacity: 1; stroke-width: 0.2; stroke: #000000" x="48" y="167.238" width="35.1102" height="6.2" rx="0" ry="0"/>
      <line style="fill: none; stroke-opacity: 1; stroke-width: 0.2; stroke: #000000" x1="51.511" y1="167.238" x2="51.511" y2="173.438"/>
      <line style="fill: none; stroke-opacity: 1; stroke-width: 0.2; stroke: #000000" x1="79.5992" y1="167.238" x2="79.5992" y2="173.438"/>
      <text font-size="1.6" style="fill: #000000; fill-opacity: 1;text-anchor:middle;font-family:sans-serif;font-style:normal;font-weight:normal" x="65.5551" y="170.838">
        <tspan x="65.5551" y="170.838">501 Not Implement</tspan>
      </text>
    </g>
    <g>
      <rect style="fill: #dbedf3; fill-opacity: 1" x="48" y="219.898" width="35.6361" height="6.2" rx="0" ry="0"/>
      <rect style="fill: none; stroke-opacity: 1; stroke-width: 0.2; stroke: #000000" x="48" y="219.898" width="35.6361" height="6.2" rx="0" ry="0"/>
      <line style="fill: none; stroke-opacity: 1; stroke-width: 0.2; stroke: #000000" x1="51.5636" y1="219.898" x2="51.5636" y2="226.098"/>
      <line style="fill: none; stroke-opacity: 1; stroke-width: 0.2; stroke: #000000" x1="80.0725" y1="219.898" x2="80.0725" y2="226.098"/>
      <text font-size="1.6" style="fill: #000000; fill-opacity: 1;text-anchor:middle;font-family:sans-serif;font-style:normal;font-weight:normal" x="65.818" y="223.498">
        <tspan x="65.818" y="223.498">413 Request Entity Too Large</tspan>
      </text>
    </g>
    <g>
      <rect style="fill: #dbedf3; fill-opacity: 1" x="79.2754" y="238.77" width="35.4033" height="6.2" rx="0" ry="0"/>
      <rect style="fill: none; stroke-opacity: 1; stroke-width: 0.2; stroke: #000000" x="79.2754" y="238.77" width="35.4033" height="6.2" rx="0" ry="0"/>
      <line style="fill: none; stroke-opacity: 1; stroke-width: 0.2; stroke: #000000" x1="82.8157" y1="238.77" x2="82.8157" y2="244.97"/>
      <line style="fill: none; stroke-opacity: 1; stroke-width: 0.2; stroke: #000000" x1="111.138" y1="238.77" x2="111.138" y2="244.97"/>
      <text font-size="1.6" style="fill: #000000; fill-opacity: 1;text-anchor:middle;font-family:sans-serif;font-style:normal;font-weight:normal" x="96.9771" y="242.37">
        <tspan x="96.9771" y="242.37">200 OK</tspan>
      </text>
    </g>
    <g>
      <line style="fill: none; stroke-opacity: 1; stroke-width: 0.2; stroke: #008000" x1="18.9916" y1="38.8546" x2="18.9916" y2="46.2854"/>
      <polygon style="fill: #008000; fill-opacity: 1" points="18.9916,47.6354 18.0916,45.8354 18.9916,46.2854 19.8916,45.8354 "/>
      <polygon style="fill: none; stroke-opacity: 1; stroke-width: 0.2; stroke: #008000" points="18.9916,47.6354 18.0916,45.8354 18.9916,46.2854 19.8916,45.8354 "/>
    </g>
    <text font-size="2.82222" style="fill: #008000; fill-opacity: 1;text-anchor:start;font-family:monospace;font-style:normal;font-weight:normal" x="18.9916" y="41.4546">
      <tspan x="18.9916" y="41.4546"> true</tspan>
    </text>
    <g>
      <line style="fill: none; stroke-opacity: 1; stroke-width: 0.2; stroke: #008000" x1="18.9916" y1="58.3064" x2="18.9916" y2="66.5638"/>
      <polygon style="fill: #008000; fill-opacity: 1" points="18.9916,67.9138 18.0916,66.1138 18.9916,66.5638 19.8916,66.1138 "/>
      <polygon style="fill: none; stroke-opacity: 1; stroke-width: 0.2; stroke: #008000" points="18.9916,67.9138 18.0916,66.1138 18.9916,66.5638 19.8916,66.1138 "/>
    </g>
    <g>
      <line style="fill: none; stroke-opacity: 1; stroke-width: 0.2; stroke: #008000" x1="32.7476" y1="72.8998" x2="46.4264" y2="72.8998"/>
      <polygon style="fill: #008000; fill-opacity: 1" points="47.7764,72.8998 45.9764,73.7998 46.4264,72.8998 45.9764,71.9998 "/>
      <polygon style="fill: none; stroke-opacity: 1; stroke-width: 0.2; stroke: #008000" points="47.7764,72.8998 45.9764,73.7998 46.4264,72.8998 45.9764,71.9998 "/>
    </g>
    <g>
      <line style="fill: none; stroke-opacity: 1; stroke-width: 0.2; stroke: #008000" x1="18.9916" y1="97.5972" x2="18.9916" y2="104.264"/>
      <polygon style="fill: #008000; fill-opacity: 1" points="18.9916,105.614 18.0916,103.814 18.9916,104.264 19.8916,103.814 "/>
      <polygon style="fill: none; stroke-opacity: 1; stroke-width: 0.2; stroke: #008000" points="18.9916,105.614 18.0916,103.814 18.9916,104.264 19.8916,103.814 "/>
    </g>
    <g>
      <line style="fill: none; stroke-opacity: 1; stroke-width: 0.2; stroke: #008000" x1="33.3428" y1="112.282" x2="46.4264" y2="112.282"/>
      <polygon style="fill: #008000; fill-opacity: 1" points="47.7764,112.282 45.9764,113.182 46.4264,112.282 45.9764,111.382 "/>
      <polygon style="fill: none; stroke-opacity: 1; stroke-width: 0.2; stroke: #008000" points="47.7764,112.282 45.9764,113.182 46.4264,112.282 45.9764,111.382 "/>
    </g>
    <g>
      <line style="fill: none; stroke-opacity: 1; stroke-width: 0.2; stroke: #008000" x1="18.9916" y1="137.498" x2="18.9916" y2="145.215"/>
      <polygon style="fill: #008000; fill-opacity: 1" points="18.9916,146.565 18.0916,144.765 18.9916,145.215 19.8916,144.765 "/>
      <polygon style="fill: none; stroke-opacity: 1; stroke-width: 0.2; stroke: #008000" points="18.9916,146.565 18.0916,144.765 18.9916,145.215 19.8916,144.765 "/>
    </g>
    <g>
      <line style="fill: none; stroke-opacity: 1; stroke-width: 0.2; stroke: #008000" x1="33.0916" y1="150.314" x2="46.4264" y2="150.314"/>
      <polygon style="fill: #008000; fill-opacity: 1" points="47.7764,150.314 45.9764,151.214 46.4264,150.314 45.9764,149.414 "/>
      <polygon style="fill: none; stroke-opacity: 1; stroke-width: 0.2; stroke: #008000" points="47.7764,150.314 45.9764,151.214 46.4264,150.314 45.9764,149.414 "/>
    </g>
    <g>
      <line style="fill: none; stroke-opacity: 1; stroke-width: 0.2; stroke: #008000" x1="18.9916" y1="177.36" x2="18.9916" y2="190.288"/>
      <polygon style="fill: #008000; fill-opacity: 1" points="18.9916,191.638 18.0916,189.838 18.9916,190.288 19.8916,189.838 "/>
      <polygon style="fill: none; stroke-opacity: 1; stroke-width: 0.2; stroke: #008000" points="18.9916,191.638 18.0916,189.838 18.9916,190.288 19.8916,189.838 "/>
    </g>
    <g>
      <line style="fill: none; stroke-opacity: 1; stroke-width: 0.2; stroke: #008000" x1="18.9916" y1="204.574" x2="18.9916" y2="215.746"/>
      <polygon style="fill: #008000; fill-opacity: 1" points="18.9916,217.096 18.0916,215.296 18.9916,215.746 19.8916,215.296 "/>
      <polygon style="fill: none; stroke-opacity: 1; stroke-width: 0.2; stroke: #008000" points="18.9916,217.096 18.0916,215.296 18.9916,215.746 19.8916,215.296 "/>
    </g>
    <g>
      <line style="fill: none; stroke-opacity: 1; stroke-width: 0.2; stroke: #008000" x1="18.9916" y1="228.676" x2="18.9916" y2="236.846"/>
      <polygon style="fill: #008000; fill-opacity: 1" points="18.9916,238.196 18.0916,236.396 18.9916,236.846 19.8916,236.396 "/>
      <polygon style="fill: none; stroke-opacity: 1; stroke-width: 0.2; stroke: #008000" points="18.9916,238.196 18.0916,236.396 18.9916,236.846 19.8916,236.396 "/>
    </g>
    <g>
      <line style="fill: none; stroke-opacity: 1; stroke-width: 0.2; stroke: #008000" x1="32.7916" y1="241.87" x2="45.9232" y2="241.87"/>
      <polygon style="fill: #008000; fill-opacity: 1" points="47.2732,241.87 45.4732,242.77 45.9232,241.87 45.4732,240.97 "/>
      <polygon style="fill: none; stroke-opacity: 1; stroke-width: 0.2; stroke: #008000" points="47.2732,241.87 45.4732,242.77 45.9232,241.87 45.4732,240.97 "/>
    </g>
    <text font-size="2.82222" style="fill: #008000; fill-opacity: 1;text-anchor:start;font-family:monospace;font-style:normal;font-weight:normal" x="32.7916" y="241.22">
      <tspan x="32.7916" y="241.22"> true</tspan>
    </text>
    <text font-size="2.82222" style="fill: #008000; fill-opacity: 1;text-anchor:start;font-family:monospace;font-style:normal;font-weight:normal" x="18.9916" y="60.9064">
      <tspan x="18.9916" y="60.9064"> true</tspan>
    </text>
    <text font-size="2.82222" style="fill: #008000; fill-opacity: 1;text-anchor:start;font-family:monospace;font-style:normal;font-weight:normal" x="18.9916" y="100.197">
      <tspan x="18.9916" y="100.197"> true</tspan>
    </text>
    <text font-size="2.82222" style="fill: #008000; fill-opacity: 1;text-anchor:start;font-family:monospace;font-style:normal;font-weight:normal" x="18.9916" y="140.098">
      <tspan x="18.9916" y="140.098"> true</tspan>
    </text>
    <text font-size="2.82222" style="fill: #008000; fill-opacity: 1;text-anchor:start;font-family:monospace;font-style:normal;font-weight:normal" x="18.9916" y="179.96">
      <tspan x="18.9916" y="179.96"> true</tspan>
    </text>
    <text font-size="2.82222" style="fill: #008000; fill-opacity: 1;text-anchor:start;font-family:monospace;font-style:normal;font-weight:normal" x="18.9916" y="207.174">
      <tspan x="18.9916" y="207.174"> true</tspan>
    </text>
    <text font-size="2.82222" style="fill: #008000; fill-opacity: 1;text-anchor:start;font-family:monospace;font-style:normal;font-weight:normal" x="18.9916" y="231.276">
      <tspan x="18.9916" y="231.276"> true</tspan>
    </text>
    <text font-size="2.82222" style="fill: #008000; fill-opacity: 1;text-anchor:start;font-family:monospace;font-style:normal;font-weight:normal" x="33.0916" y="149.664">
      <tspan x="33.0916" y="149.664"> true</tspan>
    </text>
    <text font-size="2.82222" style="fill: #008000; fill-opacity: 1;text-anchor:start;font-family:monospace;font-style:normal;font-weight:normal" x="33.3428" y="111.632">
      <tspan x="33.3428" y="111.632"> true</tspan>
    </text>
    <text font-size="2.82222" style="fill: #008000; fill-opacity: 1;text-anchor:start;font-family:monospace;font-style:normal;font-weight:normal" x="32.7476" y="72.2498">
      <tspan x="32.7476" y="72.2498"> true</tspan>
    </text>
    <g>
      <line style="fill: none; stroke-opacity: 1; stroke-width: 0.2; stroke: #ff0000" x1="33.0806" y1="53.0826" x2="46.4264" y2="53.0826"/>
      <polygon style="fill: #ff0000; fill-opacity: 1" points="47.7764,53.0826 45.9764,53.9826 46.4264,53.0826 45.9764,52.1826 "/>
      <polygon style="fill: none; stroke-opacity: 1; stroke-width: 0.2; stroke: #ff0000" points="47.7764,53.0826 45.9764,53.9826 46.4264,53.0826 45.9764,52.1826 "/>
    </g>
    <g>
      <line style="fill: none; stroke-opacity: 1; stroke-width: 0.2; stroke: #ff0000" x1="33.077" y1="91.893" x2="46.4264" y2="91.893"/>
      <polygon style="fill: #ff0000; fill-opacity: 1" points="47.7764,91.893 45.9764,92.793 46.4264,91.893 45.9764,90.993 "/>
      <polygon style="fill: none; stroke-opacity: 1; stroke-width: 0.2; stroke: #ff0000" points="47.7764,91.893 45.9764,92.793 46.4264,91.893 45.9764,90.993 "/>
    </g>
    <text font-size="2.82222" style="fill: #ff0000; fill-opacity: 1;text-anchor:start;font-family:sans-serif;font-style:normal;font-weight:normal" x="33.0806" y="52.4326">
      <tspan x="33.0806" y="52.4326"> false</tspan>
    </text>
    <g>
      <line style="fill: none; stroke-opacity: 1; stroke-width: 0.2; stroke: #ff0000" x1="18.9916" y1="77.662" x2="18.9916" y2="84.615"/>
      <polygon style="fill: #ff0000; fill-opacity: 1" points="18.9916,85.965 18.0916,84.165 18.9916,84.615 19.8916,84.165 "/>
      <polygon style="fill: none; stroke-opacity: 1; stroke-width: 0.2; stroke: #ff0000" points="18.9916,85.965 18.0916,84.165 18.9916,84.615 19.8916,84.165 "/>
    </g>
    <text font-size="2.82222" style="fill: #ff0000; fill-opacity: 1;text-anchor:start;font-family:sans-serif;font-style:normal;font-weight:normal" x="18.9916" y="80.262">
      <tspan x="18.9916" y="80.262"> false</tspan>
    </text>
    <text font-size="2.82222" style="fill: #ff0000; fill-opacity: 1;text-anchor:start;font-family:sans-serif;font-style:normal;font-weight:normal" x="33.077" y="91.243">
      <tspan x="33.077" y="91.243"> false</tspan>
    </text>
    <g>
      <line style="fill: none; stroke-opacity: 1; stroke-width: 0.2; stroke: #ff0000" x1="18.9916" y1="118.727" x2="18.9916" y2="127.556"/>
      <polygon style="fill: #ff0000; fill-opacity: 1" points="18.9916,128.906 18.0916,127.106 18.9916,127.556 19.8916,127.106 "/>
      <polygon style="fill: none; stroke-opacity: 1; stroke-width: 0.2; stroke: #ff0000" points="18.9916,128.906 18.0916,127.106 18.9916,127.556 19.8916,127.106 "/>
    </g>
    <text font-size="2.82222" style="fill: #ff0000; fill-opacity: 1;text-anchor:start;font-family:sans-serif;font-style:normal;font-weight:normal" x="18.9916" y="121.327">
      <tspan x="18.9916" y="121.327"> false</tspan>
    </text>
    <g>
      <line style="fill: none; stroke-opacity: 1; stroke-width: 0.2; stroke: #ff0000" x1="33.496" y1="133.314" x2="46.4264" y2="133.314"/>
      <polygon style="fill: #ff0000; fill-opacity: 1" points="47.7764,133.314 45.9764,134.214 46.4264,133.314 45.9764,132.414 "/>
      <polygon style="fill: none; stroke-opacity: 1; stroke-width: 0.2; stroke: #ff0000" points="47.7764,133.314 45.9764,134.214 46.4264,133.314 45.9764,132.414 "/>
    </g>
    <text font-size="2.82222" style="fill: #ff0000; fill-opacity: 1;text-anchor:start;font-family:sans-serif;font-style:normal;font-weight:normal" x="33.496" y="132.664">
      <tspan x="33.496" y="132.664"> false</tspan>
    </text>
    <g>
      <line style="fill: none; stroke-opacity: 1; stroke-width: 0.2; stroke: #ff0000" x1="18.9916" y1="153.839" x2="18.9916" y2="161.742"/>
      <polygon style="fill: #ff0000; fill-opacity: 1" points="18.9916,163.092 18.0916,161.292 18.9916,161.742 19.8916,161.292 "/>
      <polygon style="fill: none; stroke-opacity: 1; stroke-width: 0.2; stroke: #ff0000" points="18.9916,163.092 18.0916,161.292 18.9916,161.742 19.8916,161.292 "/>
    </g>
    <text font-size="2.82222" style="fill: #ff0000; fill-opacity: 1;text-anchor:start;font-family:sans-serif;font-style:normal;font-weight:normal" x="18.9916" y="156.439">
      <tspan x="18.9916" y="156.439"> false</tspan>
    </text>
    <g>
      <line style="fill: none; stroke-opacity: 1; stroke-width: 0.2; stroke: #ff0000" x1="34.6132" y1="170.338" x2="46.4264" y2="170.338"/>
      <polygon style="fill: #ff0000; fill-opacity: 1" points="47.7764,170.338 45.9764,171.238 46.4264,170.338 45.9764,169.438 "/>
      <polygon style="fill: none; stroke-opacity: 1; stroke-width: 0.2; stroke: #ff0000" points="47.7764,170.338 45.9764,171.238 46.4264,170.338 45.9764,169.438 "/>
    </g>
    <text font-size="2.82222" style="fill: #ff0000; fill-opacity: 1;text-anchor:start;font-family:sans-serif;font-style:normal;font-weight:normal" x="34.6132" y="169.688">
      <tspan x="34.6132" y="169.688"> false</tspan>
    </text>
    <g>
      <line style="fill: none; stroke-opacity: 1; stroke-width: 0.2; stroke: #ff0000" x1="34.2244" y1="198.217" x2="46.4264" y2="198.217"/>
      <polygon style="fill: #ff0000; fill-opacity: 1" points="47.7764,198.217 45.9764,199.117 46.4264,198.217 45.9764,197.317 "/>
      <polygon style="fill: none; stroke-opacity: 1; stroke-width: 0.2; stroke: #ff0000" points="47.7764,198.217 45.9764,199.117 46.4264,198.217 45.9764,197.317 "/>
    </g>
    <text font-size="2.82222" style="fill: #ff0000; fill-opacity: 1;text-anchor:start;font-family:sans-serif;font-style:normal;font-weight:normal" x="34.2244" y="197.567">
      <tspan x="34.2244" y="197.567"> false</tspan>
    </text>
    <g>
      <line style="fill: none; stroke-opacity: 1; stroke-width: 0.2; stroke: #ff0000" x1="34.0676" y1="222.998" x2="46.4264" y2="222.998"/>
      <polygon style="fill: #ff0000; fill-opacity: 1" points="47.7764,222.998 45.9764,223.898 46.4264,222.998 45.9764,222.098 "/>
      <polygon style="fill: none; stroke-opacity: 1; stroke-width: 0.2; stroke: #ff0000" points="47.7764,222.998 45.9764,223.898 46.4264,222.998 45.9764,222.098 "/>
    </g>
    <text font-size="2.82222" style="fill: #ff0000; fill-opacity: 1;text-anchor:start;font-family:sans-serif;font-style:normal;font-weight:normal" x="34.0676" y="222.348">
      <tspan x="34.0676" y="222.348"> false</tspan>
    </text>
    <text font-size="2.82222" style="fill: #ff0000; fill-opacity: 1;text-anchor:start;font-family:sans-serif;font-style:normal;font-weight:normal" x="18.9916" y="247.92">
      <tspan x="18.9916" y="247.92"> false</tspan>
    </text>
    <g>
      <polygon style="fill: #dbedf3; fill-opacity: 1" points="18.9916,238.42 32.7916,241.87 18.9916,245.32 5.19164,241.87 "/>
      <polygon style="fill: none; stroke-opacity: 1; stroke-width: 0.2; stroke: #000000" points="18.9916,238.42 32.7916,241.87 18.9916,245.32 5.19164,241.87 "/>
      <text font-size="1.6" style="fill: #000000; fill-opacity: 1;text-anchor:middle;font-family:sans-serif;font-style:normal;font-weight:normal" x="18.9916" y="242.37">
        <tspan x="18.9916" y="242.37">if OPTIONS</tspan>
      </text>
    </g>
    <g>
      <rect style="fill: #dbedf3; fill-opacity: 1" x="7.93342" y="14.1638" width="22.1164" height="6.50746"/>
      <rect style="fill: none; stroke-opacity: 1; stroke-width: 0.2; stroke: #000000" x="7.93342" y="14.1638" width="22.1164" height="6.50746"/>
      <text font-size="1.6" style="fill: #000000; fill-opacity: 1;text-anchor:middle;font-family:sans-serif;font-style:normal;font-weight:normal" x="18.9916" y="17.9175">
        <tspan x="18.9916" y="17.9175">rest_init/2</tspan>
      </text>
    </g>
    <g>
      <line style="fill: none; stroke-opacity: 1; stroke-width: 0.2; stroke: #0000ff" x1="18.9916" y1="20.6712" x2="18.9916" y2="25.8774"/>
      <polygon style="fill: #0000ff; fill-opacity: 1" points="18.9916,28.1274 17.4916,25.1274 18.9916,25.8774 20.4916,25.1274 "/>
      <polygon style="fill: none; stroke-opacity: 1; stroke-width: 0.2; stroke: #0000ff" points="18.9916,28.1274 17.4916,25.1274 18.9916,25.8774 20.4916,25.1274 "/>
    </g>
    <g>
      <rect style="fill: #dbedf3; fill-opacity: 1" x="47.4968" y="238.616" width="22.1164" height="6.50746"/>
      <rect style="fill: none; stroke-opacity: 1; stroke-width: 0.2; stroke: #000000" x="47.4968" y="238.616" width="22.1164" height="6.50746"/>
      <text font-size="1.6" style="fill: #000000; fill-opacity: 1;text-anchor:middle;font-family:sans-serif;font-style:normal;font-weight:normal" x="58.555" y="242.37">
        <tspan x="58.555" y="242.37">options/2</tspan>
      </text>
    </g>
    <g>
      <line style="fill: none; stroke-opacity: 1; stroke-width: 0.2; stroke: #000000" x1="69.6132" y1="241.87" x2="77.7018" y2="241.87"/>
      <polygon style="fill: #000000; fill-opacity: 1" points="79.0518,241.87 77.2518,242.77 77.7018,241.87 77.2518,240.97 "/>
      <polygon style="fill: none; stroke-opacity: 1; stroke-width: 0.2; stroke: #000000" points="79.0518,241.87 77.2518,242.77 77.7018,241.87 77.2518,240.97 "/>
    </g>
    <g>
      <polygon style="fill: #dbedf3; fill-opacity: 1" points="18.9916,254.256 34.5147,261.585 18.9916,268.913 3.46856,261.585 "/>
      <polygon style="fill: none; stroke-opacity: 1; stroke-width: 0.2; stroke: #000000" points="18.9916,254.256 34.5147,261.585 18.9916,268.913 3.46856,261.585 "/>
      <text font-size="1.6" style="fill: #000000; fill-opacity: 1;text-anchor:middle;font-family:sans-serif;font-style:normal;font-weight:normal" x="18.9916" y="262.085">
        <tspan x="18.9916" y="262.085">content_type_provided/2</tspan>
      </text>
    </g>
    <g>
      <polygon style="fill: #dbedf3; fill-opacity: 1" points="18.9916,278.406 33.0964,285.493 18.9916,292.579 4.88688,285.493 "/>
      <polygon style="fill: none; stroke-opacity: 1; stroke-width: 0.2; stroke: #000000" points="18.9916,278.406 33.0964,285.493 18.9916,292.579 4.88688,285.493 "/>
      <text font-size="1.6" style="fill: #000000; fill-opacity: 1;text-anchor:middle;font-family:sans-serif;font-style:normal;font-weight:normal" x="18.9916" y="285.993">
        <tspan x="18.9916" y="285.993">languages_provided/2</tspan>
      </text>
    </g>
    <g>
      <polygon style="fill: #dbedf3; fill-opacity: 1" points="18.9916,301.236 32.7545,307.605 18.9916,313.974 5.22878,307.605 "/>
      <polygon style="fill: none; stroke-opacity: 1; stroke-width: 0.2; stroke: #000000" points="18.9916,301.236 32.7545,307.605 18.9916,313.974 5.22878,307.605 "/>
      <text font-size="1.6" style="fill: #000000; fill-opacity: 1;text-anchor:middle;font-family:sans-serif;font-style:normal;font-weight:normal" x="18.9916" y="308.105">
        <tspan x="18.9916" y="308.105">charsets_provided/2</tspan>
      </text>
    </g>
    <g>
      <polygon style="fill: #dbedf3; fill-opacity: 1" points="18.9916,321.872 32.8838,329.134 18.9916,336.397 5.0995,329.134 "/>
      <polygon style="fill: none; stroke-opacity: 1; stroke-width: 0.2; stroke: #000000" points="18.9916,321.872 32.8838,329.134 18.9916,336.397 5.0995,329.134 "/>
      <text font-size="1.6" style="fill: #000000; fill-opacity: 1;text-anchor:middle;font-family:sans-serif;font-style:normal;font-weight:normal" x="18.9916" y="329.634">
        <tspan x="18.9916" y="329.634">encodings_provided/2</tspan>
      </text>
    </g>
    <g>
      <rect style="fill: #dbedf3; fill-opacity: 1" x="48" y="258.484" width="35.3946" height="6.2" rx="0" ry="0"/>
      <rect style="fill: none; stroke-opacity: 1; stroke-width: 0.2; stroke: #000000" x="48" y="258.484" width="35.3946" height="6.2" rx="0" ry="0"/>
      <line style="fill: none; stroke-opacity: 1; stroke-width: 0.2; stroke: #000000" x1="51.5395" y1="258.484" x2="51.5395" y2="264.684"/>
      <line style="fill: none; stroke-opacity: 1; stroke-width: 0.2; stroke: #000000" x1="79.8551" y1="258.484" x2="79.8551" y2="264.684"/>
      <text font-size="1.6" style="fill: #000000; fill-opacity: 1;text-anchor:middle;font-family:sans-serif;font-style:normal;font-weight:normal" x="65.6973" y="262.084">
        <tspan x="65.6973" y="262.084">406 Not Acceptable</tspan>
      </text>
    </g>
    <g>
      <line style="fill: none; stroke-opacity: 1; stroke-width: 0.2; stroke: #008000" x1="18.9916" y1="268.912" x2="18.9916" y2="276.832"/>
      <polygon style="fill: #008000; fill-opacity: 1" points="18.9916,278.182 18.0916,276.382 18.9916,276.832 19.8916,276.382 "/>
      <polygon style="fill: none; stroke-opacity: 1; stroke-width: 0.2; stroke: #008000" points="18.9916,278.182 18.0916,276.382 18.9916,276.832 19.8916,276.382 "/>
    </g>
    <text font-size="2.82222" style="fill: #008000; fill-opacity: 1;text-anchor:start;font-family:monospace;font-style:normal;font-weight:normal" x="18.9916" y="271.512">
      <tspan x="18.9916" y="271.512"> Fun for GET</tspan>
    </text>
    <g>
      <line style="fill: none; stroke-opacity: 1; stroke-width: 0.2; stroke: #008000" x1="18.9916" y1="292.58" x2="18.9916" y2="299.662"/>
      <polygon style="fill: #008000; fill-opacity: 1" points="18.9916,301.012 18.0916,299.212 18.9916,299.662 19.8916,299.212 "/>
      <polygon style="fill: none; stroke-opacity: 1; stroke-width: 0.2; stroke: #008000" points="18.9916,301.012 18.0916,299.212 18.9916,299.662 19.8916,299.212 "/>
    </g>
    <text font-size="2.82222" style="fill: #008000; fill-opacity: 1;text-anchor:start;font-family:monospace;font-style:normal;font-weight:normal" x="18.9916" y="295.18">
      <tspan x="18.9916" y="295.18"> true</tspan>
    </text>
    <g>
      <line style="fill: none; stroke-opacity: 1; stroke-width: 0.2; stroke: #008000" x1="18.9916" y1="313.974" x2="18.9916" y2="320.298"/>
      <polygon style="fill: #008000; fill-opacity: 1" points="18.9916,321.648 18.0916,319.848 18.9916,320.298 19.8916,319.848 "/>
      <polygon style="fill: none; stroke-opacity: 1; stroke-width: 0.2; stroke: #008000" points="18.9916,321.648 18.0916,319.848 18.9916,320.298 19.8916,319.848 "/>
    </g>
    <text font-size="2.82222" style="fill: #008000; fill-opacity: 1;text-anchor:start;font-family:monospace;font-style:normal;font-weight:normal" x="18.9916" y="316.574">
      <tspan x="18.9916" y="316.574"> true</tspan>
    </text>
    <g>
      <line style="fill: none; stroke-opacity: 1; stroke-width: 0.2; stroke: #008000" x1="18.9916" y1="336.396" x2="18.9916" y2="344.724"/>
      <polygon style="fill: #008000; fill-opacity: 1" points="18.9916,346.074 18.0916,344.274 18.9916,344.724 19.8916,344.274 "/>
      <polygon style="fill: none; stroke-opacity: 1; stroke-width: 0.2; stroke: #008000" points="18.9916,346.074 18.0916,344.274 18.9916,344.724 19.8916,344.274 "/>
    </g>
    <text font-size="2.82222" style="fill: #008000; fill-opacity: 1;text-anchor:start;font-family:monospace;font-style:normal;font-weight:normal" x="18.9916" y="338.996">
      <tspan x="18.9916" y="338.996"> true</tspan>
    </text>
    <g>
      <polyline style="fill: none; stroke-opacity: 1; stroke-width: 0.2; stroke: #ff0000" points="32.8838,329.134 65.6972,329.134 65.6972,266.258 "/>
      <polygon style="fill: #ff0000; fill-opacity: 1" points="65.6972,264.908 66.5972,266.708 65.6972,266.258 64.7972,266.708 "/>
      <polygon style="fill: none; stroke-opacity: 1; stroke-width: 0.2; stroke: #ff0000" points="65.6972,264.908 66.5972,266.708 65.6972,266.258 64.7972,266.708 "/>
    </g>
    <g>
      <polyline style="fill: none; stroke-opacity: 1; stroke-width: 0.2; stroke: #ff0000" points="32.7546,307.604 65.6972,307.604 65.6972,266.258 "/>
      <polygon style="fill: #ff0000; fill-opacity: 1" points="65.6972,264.908 66.5972,266.708 65.6972,266.258 64.7972,266.708 "/>
      <polygon style="fill: none; stroke-opacity: 1; stroke-width: 0.2; stroke: #ff0000" points="65.6972,264.908 66.5972,266.708 65.6972,266.258 64.7972,266.708 "/>
    </g>
    <g>
      <polyline style="fill: none; stroke-opacity: 1; stroke-width: 0.2; stroke: #ff0000" points="33.0964,285.494 65.6972,285.494 65.6972,266.258 "/>
      <polygon style="fill: #ff0000; fill-opacity: 1" points="65.6972,264.908 66.5972,266.708 65.6972,266.258 64.7972,266.708 "/>
      <polygon style="fill: none; stroke-opacity: 1; stroke-width: 0.2; stroke: #ff0000" points="65.6972,264.908 66.5972,266.708 65.6972,266.258 64.7972,266.708 "/>
    </g>
    <g>
      <line style="fill: none; stroke-opacity: 1; stroke-width: 0.2; stroke: #ff0000" x1="34.5148" y1="261.584" x2="46.4264" y2="261.584"/>
      <polygon style="fill: #ff0000; fill-opacity: 1" points="47.7764,261.584 45.9764,262.484 46.4264,261.584 45.9764,260.684 "/>
      <polygon style="fill: none; stroke-opacity: 1; stroke-width: 0.2; stroke: #ff0000" points="47.7764,261.584 45.9764,262.484 46.4264,261.584 45.9764,260.684 "/>
    </g>
    <text font-size="2.82222" style="fill: #ff0000; fill-opacity: 1;text-anchor:start;font-family:sans-serif;font-style:normal;font-weight:normal" x="34.5148" y="260.934">
      <tspan x="34.5148" y="260.934"> false</tspan>
    </text>
    <text font-size="2.82222" style="fill: #ff0000; fill-opacity: 1;text-anchor:start;font-family:sans-serif;font-style:normal;font-weight:normal" x="32.8838" y="328.484">
      <tspan x="32.8838" y="328.484"> false</tspan>
    </text>
    <text font-size="2.82222" style="fill: #ff0000; fill-opacity: 1;text-anchor:start;font-family:sans-serif;font-style:normal;font-weight:normal" x="33.0964" y="284.844">
      <tspan x="33.0964" y="284.844"> false</tspan>
    </text>
    <text font-size="2.82222" style="fill: #ff0000; fill-opacity: 1;text-anchor:start;font-family:sans-serif;font-style:normal;font-weight:normal" x="32.7546" y="306.954">
      <tspan x="32.7546" y="306.954"> false</tspan>
    </text>
    <g>
      <line style="fill: none; stroke-opacity: 1; stroke-width: 0.2; stroke: #ff0000" x1="18.9916" y1="245.32" x2="18.9916" y2="252.682"/>
      <polygon style="fill: #ff0000; fill-opacity: 1" points="18.9916,254.032 18.0916,252.232 18.9916,252.682 19.8916,252.232 "/>
      <polygon style="fill: none; stroke-opacity: 1; stroke-width: 0.2; stroke: #ff0000" points="18.9916,254.032 18.0916,252.232 18.9916,252.682 19.8916,252.232 "/>
    </g>
    <g>
      <rect style="fill: #dbedf3; fill-opacity: 1" x="7.93342" y="346.298" width="22.1164" height="6.50746"/>
      <rect style="fill: none; stroke-opacity: 1; stroke-width: 0.2; stroke: #000000" x="7.93342" y="346.298" width="22.1164" height="6.50746"/>
      <text font-size="1.6" style="fill: #000000; fill-opacity: 1;text-anchor:middle;font-family:sans-serif;font-style:normal;font-weight:normal" x="18.9916" y="350.052">
        <tspan x="18.9916" y="350.052">variances/2</tspan>
      </text>
    </g>
    <g>
      <polygon style="fill: #dbedf3; fill-opacity: 1" points="18.9916,361.536 34.3618,365.992 18.9916,370.447 3.6215,365.992 "/>
      <polygon style="fill: none; stroke-opacity: 1; stroke-width: 0.2; stroke: #000000" points="18.9916,361.536 34.3618,365.992 18.9916,370.447 3.6215,365.992 "/>
      <text font-size="1.6" style="fill: #000000; fill-opacity: 1;text-anchor:middle;font-family:sans-serif;font-style:normal;font-weight:normal" x="18.9916" y="366.492">
        <tspan x="18.9916" y="366.492">resource_exists/2</tspan>
      </text>
    </g>
    <g>
      <line style="fill: none; stroke-opacity: 1; stroke-width: 0.2; stroke: #008000" x1="18.9916" y1="352.806" x2="18.9916" y2="359.962"/>
      <polygon style="fill: #008000; fill-opacity: 1" points="18.9916,361.312 18.0916,359.512 18.9916,359.962 19.8916,359.512 "/>
      <polygon style="fill: none; stroke-opacity: 1; stroke-width: 0.2; stroke: #008000" points="18.9916,361.312 18.0916,359.512 18.9916,359.962 19.8916,359.512 "/>
    </g>
  </g>
</svg>
